{"title":"Despicable Me 2 3D HSBS 1080p BRRip in Hindi {TheEmirsKrew}","uid":11561475,"size":1664670454,"categoryP":"video","categoryS":"3d","magnet":"?xt=urn:btih:8fc1d7b3b2d6dd58ec110acd22c187b9a22bd7c1&amp;dn=Despicable+Me+2+3D+HSBS+1080p+BRRip+in+Hindi+%7BTheEmirsKrew%7D&amp;tr=udp%3A%2F%2Ftracker.openbittorrent.com%3A80&amp;tr=udp%3A%2F%2Fopen.demonii.com%3A1337&amp;tr=udp%3A%2F%2Ftracker.coppersurfer.tk%3A6969&amp;tr=udp%3A%2F%2Fexodus.desync.com%3A6969","seeders":4,"leechers":1,"uploader":null,"files":23,"time":1416886751,"description":"General\nComplete name : Despicable Me 2 3D HSBS 1080p BRRip in Hindi {TheEmirsKrew}Despicable Me 2 3D HSBS 1080p BRRip in Hindi {TheEmirsKrew}.mp4\nFormat : MPEG-4\nFormat profile : Base Media\nCodec ID : isom\nFile size : 1.53 GiB\nDuration : 1h 38mn\nOverall bit rate mode : Variable\nOverall bit rate : 2 227 Kbps\nMovie name : Encoder:tahar279279\nContentType : Movie\nEncoded date : UTC 2013-11-08 07:31:34\nTagged date : UTC 2013-11-08 07:34:19\nCopyright : \nCover : Yes\n\nVideo\nID : 1\nFormat : AVC\nFormat/Info : Advanced Video Codec\nFormat profile : &lt;a class=&quot;__cf_email__&quot; href=&quot;/cdn-cgi/l/email-protection&quot; data-cfemail=&quot;2e664749466e621a001f&quot;&gt;[email&amp;#160;protected]&lt;/a&gt;&lt;script cf-hash='f9e31' type=&quot;text/javascript&quot;&gt;\n/* &lt;![CDATA[ */!function(){try{var t=&quot;currentScript&quot;in document?document.currentScript:function(){for(var t=document.getElementsByTagName(&quot;script&quot;),e=t.length;e--;)if(t[e].getAttribute(&quot;cf-hash&quot;))return t[e]}();if(t&amp;&amp;t.previousSibling){var e,r,n,i,c=t.previousSibling,a=c.getAttribute(&quot;data-cfemail&quot;);if(a){for(e=&quot;&quot;,r=parseInt(a.substr(0,2),16),n=2;a.length-n;n+=2)i=parseInt(a.substr(n,2),16)^r,e+=String.fromCharCode(i);e=document.createTextNode(e),c.parentNode.replaceChild(e,c)}}}catch(u){}}();/* ]]&gt; */&lt;/script&gt;\nFormat settings, CABAC : Yes\nFormat settings, ReFrames : 4 frames\nCodec ID : avc1\nCodec ID/Info : Advanced Video Coding\nDuration : 1h 37mn\nBit rate : 2 018 Kbps\nMaximum bit rate : 10.3 Mbps\nWidth : 1 920 pixels\nHeight : 1 080 pixels\nDisplay aspect ratio : 16:9\nFrame rate mode : Constant\nFrame rate : 23.976 fps\nColor space : YUV\nChroma subsampling : 4:2:0\nBit depth : 8 bits\nScan type : Progressive\nBits/(Pixel*Frame) : 0.041\nStream size : 1.38 GiB (90%)\nWriting library : x264 core 132 r2 76a5c3a\nEncoding settings : cabac=1 / ref=4 / deblock=1:-1:-1 / analyse=0x3:0x133 / me=umh / subme=9 / psy=1 / psy_rd=1.00:0.15 / mixed_ref=1 / me_range=24 / chroma_me=1 / trellis=2 / 8x8dct=1 / cqm=0 / deadzone=21,11 / fast_pskip=0 / chroma_qp_offset=-3 / threads=36 / lookahead_threads=3 / sliced_threads=0 / nr=0 / decimate=1 / interlaced=0 / bluray_compat=0 / constrained_intra=0 / bframes=3 / b_pyramid=2 / b_adapt=2 / b_bias=0 / direct=3 / weightb=1 / open_gop=0 / weightp=2 / keyint=250 / keyint_min=23 / scenecut=40 / intra_refresh=0 / rc_lookahead=60 / rc=2pass / mbtree=1 / bitrate=2018 / ratetol=1.0 / qcomp=0.60 / qpmin=0 / qpmax=69 / qpstep=4 / cplxblur=20.0 / qblur=0.5 / vbv_maxrate=31250 / vbv_bufsize=31250 / nal_hrd=none / ip_ratio=1.40 / aq=1:1.00\nLanguage : English\nEncoded date : UTC 2013-11-08 07:31:34\nTagged date : UTC 2013-11-08 07:32:39\nColor primaries : BT.709\nMatrix coefficients : BT.709\n\nAudio\nID : 2\nFormat : AAC\nFormat/Info : Advanced Audio Codec\nFormat profile : LC\nCodec ID : 40\nDuration : 1h 38mn\nSource duration : 1h 38mn\nBit rate mode : Variable\nBit rate : 208 Kbps\nMaximum bit rate : 267 Kbps\nChannel(s) : 2 channels\nChannel positions : Front: L R\nSampling rate : 48.0 KHz\nCompression mode : Lossy\nStream size : 146 MiB (9%)\nSource stream size : 146 MiB (9%)\nTitle : tahar279279 and sbaz44\nLanguage : Hindi\nEncoded date : UTC 2013-11-08 07:26:43\nTagged date : UTC 2013-11-08 07:32:39","torrent":{"xt":"urn:btih:8fc1d7b3b2d6dd58ec110acd22c187b9a22bd7c1","amp;dn":"Despicable+Me+2+3D+HSBS+1080p+BRRip+in+Hindi+%7BTheEmirsKrew%7D","amp;tr":["udp%3A%2F%2Ftracker.openbittorrent.com%3A80","udp%3A%2F%2Fopen.demonii.com%3A1337","udp%3A%2F%2Ftracker.coppersurfer.tk%3A6969","udp%3A%2F%2Fexodus.desync.com%3A6969"],"infoHash":"8fc1d7b3b2d6dd58ec110acd22c187b9a22bd7c1","infoHashBuffer":{"type":"Buffer","data":[143,193,215,179,178,214,221,88,236,17,10,205,34,193,135,185,162,43,215,193]},"announce":[],"urlList":[]}}